<?xml version="1.0" encoding="utf-8"?>
<!-- Generator: Adobe Illustrator 25.2.3, SVG Export Plug-In . SVG Version: 6.00 Build 0)  -->
<svg version="1.1" id="レイヤー_1" xmlns="http://www.w3.org/2000/svg" xmlns:xlink="http://www.w3.org/1999/xlink" x="0px"
	 y="0px" viewBox="0 0 81.8 81.7" style="enable-background:new 0 0 81.8 81.7;" xml:space="preserve">
<style type="text/css">
	.st0{fill:none;stroke:#000000;stroke-width:3;stroke-miterlimit:10;}
</style>
<g id="レイヤー_2_1_">
	<g id="フッター">
		<path d="M9.4,58.3h15.4v3h-6.2v20.1h-3.1V61.2h-6V58.3z"/>
		<path d="M29.6,69.9c0-1.6,0.3-3.1,0.9-4.5c0.6-1.4,1.5-2.7,2.5-3.8c1.1-1.1,2.4-1.9,3.8-2.6c2.9-1.3,6.2-1.3,9.2,0
			c1.4,0.6,2.7,1.5,3.8,2.6c1.1,1.1,2,2.4,2.6,3.8c0.6,1.4,0.9,3,0.9,4.5c0,1.6-0.3,3.1-0.9,4.6c-0.6,1.4-1.5,2.7-2.6,3.8
			c-1.1,1.1-2.4,1.9-3.8,2.5c-1.4,0.6-3,0.9-4.6,0.9c-3.1,0-6.1-1.2-8.4-3.4c-1.1-1.1-2-2.3-2.5-3.7C29.9,73.1,29.6,71.5,29.6,69.9z
			 M32.8,69.9c0,1.2,0.2,2.3,0.7,3.4c0.4,1,1.1,2,1.8,2.8c0.8,0.8,1.7,1.5,2.8,1.9c1.1,0.5,2.2,0.7,3.4,0.7c1.2,0,2.3-0.2,3.4-0.7
			c1-0.4,1.9-1.1,2.7-1.9c0.8-0.8,1.4-1.8,1.8-2.8c0.9-2.2,0.9-4.7,0-6.9c-0.4-1.1-1.1-2-1.9-2.8c-0.8-0.8-1.7-1.5-2.8-1.9
			c-2.2-0.9-4.6-0.9-6.8,0c-1,0.5-2,1.1-2.8,1.9c-0.8,0.8-1.4,1.8-1.8,2.8C33,67.5,32.8,68.7,32.8,69.9L32.8,69.9z"/>
		<path d="M67.6,58.3c1.5,0,3,0.3,4.3,0.8c1.1,0.5,2.1,1.4,2.8,2.5c0.7,1.2,1,2.5,1,3.9c0,0.9-0.1,1.8-0.4,2.7
			C75,69,74.6,69.8,74,70.5c-0.7,0.7-1.5,1.3-2.4,1.7c-1.1,0.5-2.4,0.7-3.6,0.6h-3.4v8.5h-3.1V58.3H67.6z M67.9,69.9
			c0.8,0,1.6-0.1,2.3-0.4c0.5-0.3,1-0.7,1.4-1.1c0.3-0.4,0.6-0.9,0.7-1.5c0.1-0.4,0.2-0.9,0.2-1.4c0-0.5-0.1-1-0.2-1.4
			c-0.2-0.5-0.4-1-0.8-1.4c-0.4-0.4-0.9-0.8-1.4-1c-0.7-0.3-1.4-0.4-2.1-0.4h-3.6v8.7L67.9,69.9z"/>
		<polyline class="st0" points="0.9,32.9 42.7,1.9 80.9,32.9 		"/>
	</g>
</g>
</svg>
