<?xml version="1.0" encoding="utf-8"?>
<!-- Generator: Adobe Illustrator 25.2.3, SVG Export Plug-In . SVG Version: 6.00 Build 0)  -->
<svg version="1.1" id="レイヤー_1" xmlns="http://www.w3.org/2000/svg" xmlns:xlink="http://www.w3.org/1999/xlink" x="0px"
	 y="0px" viewBox="0 0 48.1 59.6" style="enable-background:new 0 0 48.1 59.6;" xml:space="preserve">
<style type="text/css">
	.st0{enable-background:new    ;}
	.st1{fill:none;stroke:#000000;stroke-width:2;stroke-miterlimit:10;}
</style>
<g id="レイヤー_2_1_">
	<g id="フッター">
		<g class="st0">
			<path d="M3.6,40.5h9.6v1.9H9.3V55H7.4V42.4H3.6V40.5z"/>
		</g>
		<g class="st0">
			<path d="M16.3,47.7c0-1,0.2-1.9,0.6-2.8s0.9-1.7,1.6-2.4c0.7-0.7,1.5-1.2,2.4-1.6c0.9-0.4,1.8-0.6,2.9-0.6c1,0,2,0.2,2.9,0.6
				c0.9,0.4,1.7,0.9,2.4,1.6c0.7,0.7,1.2,1.5,1.6,2.4s0.6,1.8,0.6,2.8c0,1-0.2,2-0.6,2.9s-0.9,1.7-1.6,2.3c-0.7,0.7-1.5,1.2-2.4,1.6
				c-0.9,0.4-1.8,0.6-2.9,0.6c-1,0-2-0.2-2.9-0.6c-0.9-0.4-1.7-0.9-2.4-1.6c-0.7-0.7-1.2-1.4-1.6-2.3S16.3,48.8,16.3,47.7z
				 M18.3,47.8c0,0.8,0.1,1.5,0.4,2.1c0.3,0.7,0.7,1.2,1.2,1.8c0.5,0.5,1.1,0.9,1.7,1.2s1.4,0.4,2.1,0.4c0.7,0,1.4-0.1,2.1-0.4
				c0.7-0.3,1.2-0.7,1.7-1.2c0.5-0.5,0.9-1.1,1.1-1.8c0.3-0.7,0.4-1.4,0.4-2.1c0-0.8-0.1-1.5-0.4-2.2c-0.3-0.7-0.7-1.3-1.2-1.8
				s-1.1-0.9-1.7-1.2c-0.7-0.3-1.4-0.4-2.1-0.4c-0.8,0-1.5,0.1-2.1,0.4c-0.7,0.3-1.2,0.7-1.7,1.2c-0.5,0.5-0.9,1.1-1.1,1.8
				C18.5,46.3,18.3,47,18.3,47.8z"/>
		</g>
		<g class="st0">
			<path d="M40.2,40.5c1.1,0,2,0.2,2.7,0.5s1.3,0.9,1.7,1.5c0.4,0.7,0.6,1.5,0.6,2.4c0,0.6-0.1,1.1-0.3,1.7
				c-0.2,0.6-0.5,1.1-0.8,1.5c-0.4,0.4-0.9,0.8-1.5,1.1s-1.4,0.4-2.2,0.4h-2.1V55h-1.9V40.5H40.2z M40.4,47.8c0.6,0,1-0.1,1.4-0.3
				s0.7-0.4,0.9-0.7c0.2-0.3,0.4-0.6,0.5-0.9c0.1-0.3,0.1-0.6,0.1-0.9c0-0.3,0-0.6-0.1-0.9c-0.1-0.3-0.2-0.6-0.5-0.9
				s-0.5-0.5-0.9-0.6c-0.4-0.2-0.8-0.2-1.3-0.2h-2.2v5.4H40.4z"/>
		</g>
		<polyline class="st1" points="0.6,21.1 25,1.3 47.3,21.1 		"/>
	</g>
</g>
</svg>
