<?xml version="1.0" encoding="utf-8"?>
<!-- Generator: Adobe Illustrator 25.2.3, SVG Export Plug-In . SVG Version: 6.00 Build 0)  -->
<svg version="1.1" id="レイヤー_1" xmlns="http://www.w3.org/2000/svg" xmlns:xlink="http://www.w3.org/1999/xlink" x="0px"
	 y="0px" viewBox="0 0 95.1 76.4" style="enable-background:new 0 0 95.1 76.4;" xml:space="preserve">
<style type="text/css">
	.st0{fill:#FFFFFF;}
	.st1{fill:none;stroke:#000000;stroke-width:4;stroke-miterlimit:10;}
</style>
<g id="レイヤー_2_1_">
	<g id="テキスト">
		<path class="st0" d="M43,3L19.9,43c-1.7,2.9-0.7,6.5,2.2,8.2c0.9,0.5,1.9,0.8,3,0.8h46.2c3.3,0,6-2.7,6-6c0-1.1-0.3-2.1-0.8-3
			L53.4,3c-1.7-2.9-5.3-3.8-8.2-2.2C44.3,1.4,43.5,2.1,43,3z"/>
		<circle cx="48.2" cy="40.4" r="3"/>
		<line class="st1" x1="48.2" y1="33.7" x2="48.2" y2="16.6"/>
		<path class="st0" d="M0,76l5.2-12.1h0.1L10.4,76H8.3l-3.6-9.2L6,65.9L1.8,76H0z M3.2,71.7h4l0.6,1.6H2.7L3.2,71.7z"/>
		<path class="st0" d="M11,64.4h7.8v1.8h-3V76h-1.9v-9.8H11V64.4z"/>
		<path class="st0" d="M20.6,64.4h7.8v1.8h-3V76h-1.9v-9.8h-2.9V64.4z"/>
		<path class="st0" d="M31.1,64.4h7.7v1.8H33v3.1h5.2v1.8H33v3.2h6V76h-7.9V64.4z"/>
		<path class="st0" d="M52.2,76.4l-9-8.7l0.5,0.2v8h-1.8V64H42l8.8,8.7l-0.4-0.1v-8.1h1.8L52.2,76.4L52.2,76.4z"/>
		<path class="st0" d="M54.9,64.4h7.8v1.8h-3V76h-1.9v-9.8h-2.9V64.4z"/>
		<path class="st0" d="M65.4,64.4h1.9V76h-1.9V64.4z"/>
		<path class="st0" d="M70.1,70.2c0-0.8,0.2-1.6,0.5-2.3c0.3-0.7,0.7-1.4,1.3-1.9c0.5-0.6,1.2-1,1.9-1.3c1.5-0.6,3.1-0.6,4.6,0
			c0.7,0.3,1.4,0.8,1.9,1.3c0.5,0.5,1,1.2,1.3,1.9c0.3,0.7,0.5,1.5,0.5,2.3c0,0.8-0.2,1.6-0.5,2.3c-0.3,0.7-0.8,1.4-1.3,1.9
			c-1.7,1.7-4.3,2.2-6.5,1.3c-0.7-0.3-1.3-0.7-1.9-1.3c-0.5-0.5-1-1.2-1.3-1.9C70.2,71.8,70.1,71,70.1,70.2z M72,70.2
			c0,1.1,0.4,2.2,1.2,2.9c0.4,0.4,0.8,0.7,1.3,0.9c0.5,0.2,1,0.3,1.6,0.3c0.5,0,1.1-0.1,1.6-0.3c0.5-0.2,0.9-0.5,1.3-0.9
			c0.4-0.4,0.7-0.8,0.9-1.3c0.4-1,0.4-2.2,0-3.2c-0.2-0.5-0.5-0.9-0.9-1.3c-0.4-0.4-0.8-0.7-1.3-0.9C77.1,66.1,76.6,66,76,66
			c-0.5,0-1.1,0.1-1.6,0.3c-1,0.4-1.8,1.2-2.2,2.2C72.1,69.1,72,69.6,72,70.2z"/>
		<path class="st0" d="M95,76.4l-8.9-8.7l0.5,0.2v8h-1.8V64h0.1l8.8,8.7l-0.4-0.1v-8.1h1.9v12H95z"/>
	</g>
</g>
</svg>
