<svg xmlns="http://www.w3.org/2000/svg" viewBox="0 0 56.62 37"><defs><style>.cls-1{fill:#fff;}.cls-2{fill:none;stroke:#fff;stroke-linecap:round;stroke-linejoin:round;stroke-width:2px;}</style></defs><g id="レイヤー_2" data-name="レイヤー 2"><g id="テキスト"><path class="cls-1" d="M56.62,21.58c0-6.65-7.57-12-16.91-12s-16.92,5.39-16.92,12,7.57,12.05,16.92,12.05a23.75,23.75,0,0,0,4.69-.48L51.65,37l-1.9-5.73C55,28.66,56.62,26.15,56.62,21.58Z"/><path class="cls-2" d="M1,15.73C1,7.59,10.26,1,21.69,1S42.37,7.59,42.37,15.73,33.11,30.45,21.69,30.45a29,29,0,0,1-5.75-.58L7.08,34.58l2.33-7C3,24.38,1,21.31,1,15.73Z"/></g></g></svg>