<?xml version="1.0" encoding="utf-8"?>
<!-- Generator: Adobe Illustrator 25.2.3, SVG Export Plug-In . SVG Version: 6.00 Build 0)  -->
<svg version="1.1" id="レイヤー_1" xmlns="http://www.w3.org/2000/svg" xmlns:xlink="http://www.w3.org/1999/xlink" x="0px"
	 y="0px" viewBox="0 0 72.5 32" style="enable-background:new 0 0 72.5 32;" xml:space="preserve">
<style type="text/css">
	.st0{fill:#FFFFFF;}
</style>
<g id="レイヤー_2_1_">
	<g id="テキスト">
		<rect width="72.5" height="32"/>
		<path class="st0" d="M21.3,24.8L9,12.4l0.6,0.1v11.8H7.6V7.9h0.1l12.2,12.5l-0.5-0.1V8.4h2.1v16.4H21.3z"/>
		<path class="st0" d="M27.1,8.4h10.3v2.1h-8.2v4.8h7.3v2h-7.3v4.9h8.5v2H27.1V8.4z"/>
		<path class="st0" d="M41.1,8.5h2.5l4.3,12.1l-0.4-0.1l3.2-8.1l1,2.9L47.5,25L41.1,8.5z M48.8,8.5h2.1l4.7,12l-0.4-0.1l4.1-11.9
			h2.3L55.2,25L48.8,8.5z"/>
		<path class="st0" d="M65.7,24.2c-0.3,0-0.7-0.1-0.9-0.3c-0.2-0.2-0.4-0.5-0.4-0.8c0-0.3,0.1-0.6,0.4-0.9c0.5-0.5,1.3-0.5,1.9,0
			c0.2,0.2,0.4,0.5,0.4,0.9c0,0.3-0.1,0.6-0.4,0.8C66.4,24.1,66.1,24.3,65.7,24.2z M64.7,7.6h1.9v12.6h-1.8L64.7,7.6z"/>
	</g>
</g>
</svg>
