<?xml version="1.0" encoding="utf-8"?>
<!-- Generator: Adobe Illustrator 25.2.3, SVG Export Plug-In . SVG Version: 6.00 Build 0)  -->
<svg version="1.1" id="レイヤー_1" xmlns="http://www.w3.org/2000/svg" xmlns:xlink="http://www.w3.org/1999/xlink" x="0px"
	 y="0px" viewBox="0 0 120 83" style="enable-background:new 0 0 120 83;" xml:space="preserve">
<style type="text/css">
	.st0{fill:#00B9E6;}
	.st1{enable-background:new    ;}
	.st2{fill:#FFFFFF;}
</style>
<g id="レイヤー_2_1_">
	<g id="テキスト">
		<rect class="st0" width="120" height="60"/>
		<g class="st1">
			<path class="st2" d="M39.1,41.7l-16.8-17l0.8,0.2L23.2,41h-2.9V18.6h0.1L37,35.7l-0.7-0.1l-0.1-16.3h2.9L39.1,41.7L39.1,41.7z"/>
			<path class="st2" d="M46.9,19.3H61v2.8H49.8v6.6h10v2.8h-10v6.7h11.6V41H46.9V19.3z"/>
			<path class="st2" d="M66.1,19.4h3.4L75.3,36l-0.5-0.2l4.3-11.1l1.3,3.9L74.7,42L66.1,19.4z M76.5,19.4h2.9l6.4,16.3l-0.6-0.1
				l5.6-16.2h3.1L85.3,42L76.5,19.4z"/>
			<path class="st2" d="M99.6,40.9c-0.5,0-0.9-0.1-1.3-0.5c-0.3-0.3-0.5-0.7-0.5-1.1s0.2-0.8,0.5-1.2c0.3-0.3,0.8-0.5,1.3-0.5
				c0.5,0,0.9,0.2,1.3,0.5c0.3,0.3,0.5,0.7,0.5,1.2s-0.2,0.8-0.5,1.1C100.6,40.7,100.1,40.9,99.6,40.9z M98.3,18.2h2.5v17.2h-2.5
				V18.2z"/>
		</g>
		<polygon class="st0" points="20,59 20,83 46,59 		"/>
	</g>
</g>
</svg>
