<?xml version="1.0" encoding="utf-8"?>
<!-- Generator: Adobe Illustrator 25.2.3, SVG Export Plug-In . SVG Version: 6.00 Build 0)  -->
<svg version="1.1" id="レイヤー_1" xmlns="http://www.w3.org/2000/svg" xmlns:xlink="http://www.w3.org/1999/xlink" x="0px"
	 y="0px" viewBox="0 0 28.7 29.6" style="enable-background:new 0 0 28.7 29.6;" xml:space="preserve">
<style type="text/css">
	.st0{fill:#A0A0A0;}
</style>
<g id="レイヤー_2_1_">
	<g id="ヘッダー">
		<g id="KoYXva">
			<path class="st0" d="M22.3,1.5c1-0.2,2-0.6,2.9-1.1c-0.3,1.1-1,2-2,2.5c0.3,0.1,0.6,0,0.9-0.1s0.6-0.1,0.8-0.2
				c0.3-0.1,0.6-0.2,0.9-0.3c0,0.1-0.1,0.2-0.1,0.2L25.3,3L25,3.6c-0.3,0.3-0.6,0.6-1,0.9c-0.2,0.1-0.3,0.3-0.3,0.6c0,0,0,0.1,0,0.2
				c0,0.6,0,1.3-0.1,1.9s-0.2,1.1-0.4,1.7c-0.1,0.5-0.3,0.9-0.5,1.4c-0.2,0.7-0.6,1.4-1,2.1c-0.1,0.2-0.2,0.4-0.4,0.6
				c0,0.3-0.3,0.5-0.5,0.7c-0.5,0.7-1.1,1.4-1.8,2c-0.7,0.6-1.4,1.1-2.2,1.6C16,17.7,15,18.1,14,18.4c-0.4,0.1-0.7,0.2-1.1,0.2
				c-0.7,0.2-1.4,0.2-2.1,0.2c-0.3,0.1-0.7,0.1-1,0.1c-0.2,0-0.4-0.1-0.7-0.1c-0.2,0-0.4,0-0.7,0c-0.7-0.1-1.5-0.3-2.2-0.5
				c-0.4,0-0.7-0.1-1-0.3c-0.7-0.3-1.4-0.6-2.1-1c-0.1-0.1-0.3-0.2-0.4-0.3c0.1,0,0.2,0,0.3,0C3.5,17,3.9,17,4.3,16.9
				c0.3,0,0.7,0,1-0.1c0.7-0.1,1.4-0.3,2.1-0.6c0.6-0.2,1.3-0.6,1.8-1c0.2-0.1,0.4-0.2,0.6-0.4c-0.6-0.1-1.1-0.2-1.7-0.4
				c-0.4-0.2-0.8-0.4-1.2-0.7c-0.3-0.3-0.6-0.6-0.9-0.9c-0.2-0.4-0.4-0.7-0.6-1.1c0-0.1,0-0.1,0-0.2c0.7,0.2,1.3,0.2,2,0
				c-0.1-0.1-0.1-0.2-0.2-0.2c-0.3,0-0.6-0.1-0.8-0.3c-0.5-0.2-0.9-0.5-1.2-0.9c-0.6-0.6-1-1.2-1.2-2C3.8,7.9,3.8,7.6,3.7,7.3
				c0-0.2-0.1-0.5-0.1-0.7C4.3,6.9,5,7.1,5.7,7.2C5.7,7.1,5.6,7,5.5,7C5,6.8,4.8,6.3,4.6,6C4.4,5.7,4.2,5.4,4.1,5.1
				C4,4.9,3.9,4.7,3.9,4.6C3.7,3.9,3.7,3.1,3.8,2.4c0.1-0.5,0.3-1,0.5-1.4c0.1,0.1,0.2,0.1,0.2,0.2c0.3,0.3,0.7,0.7,1,1
				C6,2.7,6.5,3.1,7,3.4c0.5,0.4,1.1,0.7,1.6,1S9.5,4.9,10,5c0.5,0.2,1,0.4,1.5,0.4c0.2,0.2,0.5,0,0.6,0.2c0.3,0,0.6,0.2,1,0.1
				S13.8,6,14,5.9h0.2c0-0.2-0.1-0.4-0.1-0.7c0-0.3,0-0.6,0-0.8c0-0.8,0.3-1.5,0.7-2.1c0.5-0.9,1.3-1.5,2.3-1.9
				c0.3-0.2,0.7-0.3,1.1-0.2c0.2,0,0.3-0.1,0.5-0.1c0.6,0,1.2,0.1,1.8,0.3C21.2,0.6,21.8,1,22.3,1.5z"/>
		</g>
		<path class="st0" d="M4.3,23.6c-0.3-0.1-0.5-0.2-0.8-0.3c-0.3-0.1-0.6-0.1-0.9-0.1s-0.7,0.1-0.9,0.3c-0.2,0.2-0.4,0.4-0.3,0.7
			c0,0.2,0.1,0.4,0.2,0.6C1.8,25,2,25.1,2.2,25.2c0.2,0.1,0.5,0.2,0.8,0.3c0.2,0.1,0.5,0.2,0.7,0.3c0.2,0.1,0.4,0.2,0.6,0.4
			c0.2,0.2,0.3,0.4,0.4,0.6c0.1,0.3,0.2,0.6,0.2,0.9c0,0.8-0.4,1.4-1.1,1.8c-0.4,0.2-0.8,0.3-1.3,0.3c-0.3,0-0.6,0-0.9-0.1
			s-0.5-0.2-0.8-0.3C0.4,29.1,0.2,29,0,28.8L0.4,28c0.2,0.1,0.4,0.2,0.6,0.3c0.2,0.1,0.4,0.2,0.6,0.2c0.2,0.1,0.4,0.1,0.7,0.1
			c0.2,0,0.5,0,0.7-0.1s0.4-0.2,0.6-0.4c0.2-0.2,0.2-0.4,0.2-0.7c0-0.2-0.1-0.4-0.2-0.6c-0.2-0.2-0.4-0.3-0.6-0.4
			c-0.2-0.1-0.4-0.2-0.7-0.3c-0.2-0.1-0.5-0.2-0.7-0.3c-0.2-0.1-0.4-0.2-0.6-0.4c-0.2-0.1-0.4-0.3-0.5-0.5s-0.2-0.5-0.2-0.8
			c0-0.4,0.1-0.7,0.3-1s0.5-0.5,0.8-0.7s0.7-0.3,1.1-0.3s0.8,0,1.2,0.2c0.4,0.1,0.7,0.2,1,0.4L4.3,23.6z"/>
		<path class="st0" d="M5.9,22.3h4.8v0.9H8.8v6.3h-1v-6.3H5.9V22.3z"/>
		<path class="st0" d="M10.9,29.5l3.2-7.5h0.1l3.1,7.5h-1.1l-2.4-6l0.7-0.5l-2.6,6.4h-1V29.5z M12.7,26.8h2.7l0.3,0.8h-3.3
			L12.7,26.8z"/>
		<path class="st0" d="M18.6,22.3h4.3v0.9h-3.3v2.3h2.9v0.9h-2.9v3.1h-1L18.6,22.3z"/>
		<path class="st0" d="M24.4,22.3h4.3v0.9h-3.3v2.3h2.9v0.9h-2.9v3.1h-1L24.4,22.3z"/>
	</g>
</g>
</svg>
