<svg xmlns="http://www.w3.org/2000/svg" viewBox="0 0 23.19 18.99"><defs><style>.cls-1{fill:#a0a0a0;}</style></defs><g id="レイヤー_2" data-name="レイヤー 2"><g id="ヘッダー"><g id="KoYXva"><path class="cls-1" d="M19.55,1.53A8.31,8.31,0,0,0,22.49.41,4.07,4.07,0,0,1,20.54,3c.34.13.63,0,.92-.1a4.6,4.6,0,0,0,.83-.25c.27-.11.56-.19.9-.34a1.42,1.42,0,0,1-.11.24c-.14.19-.29.37-.44.55l-.46.53a7.28,7.28,0,0,1-1,.87.54.54,0,0,0-.28.55.75.75,0,0,1,0,.15,10.38,10.38,0,0,1-.12,1.93,8.22,8.22,0,0,1-.36,1.66c-.14.48-.28.95-.45,1.42a9.45,9.45,0,0,1-1,2.08c-.13.19-.17.43-.36.58,0,.33-.3.51-.46.74a11.82,11.82,0,0,1-1.83,2,16.05,16.05,0,0,1-2.23,1.62,14.16,14.16,0,0,1-2.87,1.2,10.12,10.12,0,0,1-1.09.25,8.3,8.3,0,0,1-2,.21A2.6,2.6,0,0,1,7,19c-.24,0-.44-.15-.69-.11a1.68,1.68,0,0,1-.67,0,9,9,0,0,1-2.17-.51,2.09,2.09,0,0,1-1-.27c-.72-.29-1.43-.64-2.13-1A2.26,2.26,0,0,1,0,16.83c.1,0,.22,0,.29,0a2.06,2.06,0,0,0,1.2.07c.35-.05.71,0,1.05-.09a12.5,12.5,0,0,0,2.05-.57,7.59,7.59,0,0,0,1.82-1c.18-.14.36-.25.55-.39a7.18,7.18,0,0,1-1.66-.4,4.71,4.71,0,0,1-1.18-.66,7,7,0,0,1-.88-.93,8.45,8.45,0,0,1-.63-1.14c0-.05,0-.13,0-.25a3.77,3.77,0,0,0,2,0c-.07-.06-.13-.17-.18-.16A1.48,1.48,0,0,1,3.55,11a5.33,5.33,0,0,1-1.24-.89,4.66,4.66,0,0,1-1.2-2,2.8,2.8,0,0,1-.17-.76,6.73,6.73,0,0,0-.13-.73,5.29,5.29,0,0,0,2.11.55A.52.52,0,0,0,2.7,7c-.44-.21-.64-.65-.93-1a6,6,0,0,1-.51-.89,2.35,2.35,0,0,1-.16-.55A5.6,5.6,0,0,1,1,2.43,4.44,4.44,0,0,1,1.53,1a2.51,2.51,0,0,1,.24.19c.35.34.69.68,1,1A13.65,13.65,0,0,0,4.31,3.44a16.15,16.15,0,0,0,1.62,1,7.36,7.36,0,0,0,1.44.62,7.46,7.46,0,0,0,1.53.45c.18.19.48,0,.65.18.34,0,.65.17,1,.11s.43.17.68.1h.17c0-.25-.06-.46-.07-.67a7.66,7.66,0,0,1,0-.83A3.85,3.85,0,0,1,12,2.27a4.46,4.46,0,0,1,2.3-1.9A2.44,2.44,0,0,1,15.46.11c.18,0,.32-.12.48-.11a6.73,6.73,0,0,1,1.78.32A4.73,4.73,0,0,1,19.55,1.53Z"/></g></g></g></svg>