<svg xmlns="http://www.w3.org/2000/svg" viewBox="0 0 28.39 20"><defs><style>.cls-1{fill:#a0a0a0;}</style></defs><g id="レイヤー_2" data-name="レイヤー 2"><g id="ヘッダー"><path class="cls-1" d="M27.79,3.12A3.53,3.53,0,0,0,25.28.6C23.07,0,14.19,0,14.19,0S5.32,0,3.1.6A3.57,3.57,0,0,0,.59,3.12,37.65,37.65,0,0,0,0,10a37.65,37.65,0,0,0,.59,6.88A3.57,3.57,0,0,0,3.1,19.4c2.22.6,11.09.6,11.09.6s8.88,0,11.09-.6a3.53,3.53,0,0,0,2.51-2.52,37,37,0,0,0,.6-6.88A37,37,0,0,0,27.79,3.12Zm-16.5,11.1V5.78L18.71,10Z"/></g></g></svg>