<?xml version="1.0" encoding="utf-8"?>
<!-- Generator: Adobe Illustrator 25.2.3, SVG Export Plug-In . SVG Version: 6.00 Build 0)  -->
<svg version="1.1" id="レイヤー_1" xmlns="http://www.w3.org/2000/svg" xmlns:xlink="http://www.w3.org/1999/xlink" x="0px"
	 y="0px" viewBox="0 0 464.2 325.9" style="enable-background:new 0 0 464.2 325.9;" xml:space="preserve">
<style type="text/css">
	.st0{fill:#FFFFFF;}
</style>
<g id="レイヤー_2_1_">
	<g id="テキスト">
		<path class="st0" d="M0,50V0h0.1l26.7,37.8l-4.1-0.9L49.3,0h0.1v50H40V21.3l0.6,4.9L24.3,49.3h-0.1L7.5,26.2l1.6-4.5V50H0z"/>
		<path class="st0" d="M62.7,2h9.5v48h-9.5V2z"/>
		<path class="st0" d="M97.9,35L80.2,2h11.7l12.4,24.9l-2.8,0.2L113.7,2h11.7l-18,33.1V50h-9.5V35z"/>
		<path class="st0" d="M141.9,32.2c0,1.6,0.5,3.1,1.4,4.4c0.9,1.4,2.2,2.6,3.6,3.4c1.5,0.9,3.2,1.3,4.9,1.3c1.8,0,3.6-0.4,5.2-1.3
			c1.5-0.8,2.7-2,3.6-3.4c0.9-1.3,1.4-2.8,1.4-4.4V2h9.3v30.4c0.1,3.3-0.8,6.6-2.6,9.4c-1.7,2.7-4.2,4.9-7.1,6.4
			c-3,1.6-6.4,2.4-9.9,2.3c-3.4,0-6.7-0.8-9.8-2.3c-2.9-1.5-5.3-3.7-7-6.4c-1.8-2.8-2.7-6.1-2.6-9.4V2h9.5L141.9,32.2z"/>
		<path class="st0" d="M202.4,2h32.4v9.1h-11.7V50h-9.5V11.1h-11.2V2z"/>
		<path class="st0" d="M241.8,26c0-3.2,0.6-6.4,1.9-9.4c2.5-5.9,7.2-10.6,13.1-13.2c6.1-2.6,12.9-2.6,19,0c2.9,1.3,5.6,3.1,7.9,5.4
			c2.3,2.3,4.1,4.9,5.4,7.9c1.3,3,1.9,6.2,1.9,9.4c0,3.3-0.6,6.5-1.9,9.5c-1.3,2.9-3.1,5.6-5.4,7.8c-2.3,2.2-4.9,4-7.9,5.2
			c-6.1,2.5-12.9,2.5-19,0c-5.9-2.5-10.5-7.1-13.1-13C242.4,32.6,241.8,29.3,241.8,26z M251.6,26c0,4.1,1.5,8,4.3,10.9
			c1.4,1.4,3,2.5,4.8,3.3c1.9,0.8,3.9,1.2,5.9,1.2c3.9,0,7.7-1.6,10.3-4.5c2.7-3,4.2-6.8,4.2-10.9c0-4.1-1.5-8-4.3-11
			c-1.3-1.4-2.9-2.5-4.7-3.3c-3.7-1.6-7.9-1.6-11.6,0c-1.8,0.8-3.4,1.9-4.7,3.3c-1.4,1.4-2.4,3.1-3.1,5
			C252,21.9,251.6,23.9,251.6,26L251.6,26z"/>
		<path class="st0" d="M301.2,50V0h0.1L328,37.8l-4-0.9L350.5,0h0.1v50h-9.5V21.3l0.6,4.9l-16.3,23.1h-0.1l-16.7-23.1l1.6-4.5V50
			H301.2z"/>
		<path class="st0" d="M363.9,2h9.5v48h-9.5V2z"/>
		<path class="st0" d="M383.4,2h32.4v9.1h-11.7V50h-9.5V11.1h-11.2V2z"/>
		<path class="st0" d="M420.3,50L442,0.1h0.5L464.2,50h-11l-13.8-35.1l6.9-4.7L429.6,50H420.3z M435.1,32.6h14.4l3.3,8h-20.7
			L435.1,32.6z"/>
		<path class="st0" d="M445.5,76.8h-341c-2.1,0-3.8,1.7-3.8,3.8c0,2.1,1.7,3.8,3.8,3.8h337.2v94.3h-30.5c-0.1,0-0.2,0.1-0.4,0.1
			c-0.3,0-0.5,0.1-0.8,0.1c-0.2,0.1-0.4,0.2-0.7,0.3c-0.2,0.1-0.4,0.2-0.6,0.4c-0.2,0.2-0.4,0.4-0.5,0.6c-0.1,0.1-0.2,0.2-0.3,0.3
			s-10.4,16-15.1,21.4c-5.1,5.9-11.2,11.7-17.5,10.4c-2.2-0.3-4.1-1.6-5.2-3.5c-4.5-7.4,0.3-24.1,2.9-33.1c0.4-1.2,0.7-2.4,1-3.4
			c0.6-2-0.6-4.1-2.6-4.6c-2-0.6-4.1,0.6-4.6,2.6c0,0,0,0,0,0.1c-2.9,9.9-6.5,19.6-10.7,29c-4,8.6-8.8,15.4-14.4,20.1
			s-14.5,8.6-20.9,4s-5.6-14.6-3.8-22.1c1.7-7.1,4.8-14.2,7.9-21c1.1-2.6,2.3-5.2,3.4-7.8l0,0c0.8-1.9-0.1-4.1-2.1-4.9
			c-1.9-0.8-4.1,0.1-4.9,2.1l0,0c-4.3,10.2-11.2,19-20.2,25.6c-3.7,2.8-8,4.7-12.5,5.5c3.5-8.6,4.9-17.8,4.2-27
			c-0.6-7.1-2.7-12.2-6.4-15.8c-5.7-5.5-15.3-5.9-21.8-0.8c-4.2,3.3-7.1,8.4-8.2,14.5c-2.7,15.5,5.3,30,19.4,35.2
			c0.4,0.1,0.9,0.3,1.3,0.4c-1.5,2.6-3.2,5.1-5,7.4c-5.6,7.3-13.3,13-20.3,14.9c-3.8,1.1-7.9,0.8-11.5-0.8
			c-5.8-2.8-8.4-10.6-8.4-16.7c0-0.6,0-1.3,0.1-1.9c9.6-9.9,16.7-22,20.7-35.2c1.5-5-1.3-7.1-2.2-7.6c-2-1.2-5.3-1.3-8.2,2.4
			c-5.9,7.5-10.7,15.8-14.1,24.7c-1.6,4-2.7,8.1-3.4,12.4c-5.3,5.2-11,10-17.2,14.1c-9.5,6.4-19.7,11.8-30.5,15.9
			c-1.7,0.6-3.4,1.3-5.2,2c11.6-26.9,23-49.3,35.5-69.4c0.6-1,1.2-2,1.8-2.9c1.1-1.8,0.6-4.1-1.2-5.2s-4.1-0.6-5.2,1.2
			c-0.6,1-1.2,1.9-1.8,2.9c-4.8,7.6-9.7,14.7-13.6,20.2c-7.1,10.1-15.2,19.8-26,22c-2.5,0.6-5.1,0.4-7.5-0.8c-1.9-1-3.2-2.8-3.8-4.9
			c-1.6-6.3,4.4-16.9,7.9-23.3l0.8-1.4c2.5-4.5,5.1-8.8,7.9-12.8c0.6-0.8,1.1-1.5,1.6-2.3c1.2-1.7,0.8-4.1-0.9-5.2s-4.1-0.8-5.2,0.9
			l0,0c-0.5,0.8-1.1,1.5-1.6,2.3c-12.1,16.5-26.2,18.1-32.4,18.9c-7.7,0.9-15.5,0.9-23.2,0c-2.1-0.2-3.9,1.3-4.1,3.4
			c-0.2,2,1.2,3.8,3.1,4.1c8.3,1,16.8,1,25.1,0c6.7-0.6,13.2-2.5,19.2-5.6c-3.7,7.2-7.3,15.9-5.5,23c1.1,4.1,3.8,7.6,7.5,9.7
			c3.9,2,8.3,2.5,12.6,1.5c5.5-1.2,10.7-3.7,15-7.3c-5.3,10.8-10.5,22.4-15.7,34.9c-27.9,10.7-61.2,26-66,57.7
			c-1.3,8.8,2.2,20,11.5,24.3c2.5,1.1,5.1,1.7,7.8,1.7c6.9,0,13.7-3.5,18-7.9c12.7-12.8,20.2-32.9,26.8-50.6c1.7-4.5,3.3-9,5-13
			l2.6-6.3l5.1-1.9c2.4-0.9,4.7-1.8,6.9-2.6c11.3-4.3,22-10,32-16.7c4.5-3,8.8-6.4,12.9-9.9c1.2,7.4,5.1,15,12.2,18.5
			c5.2,2.4,11.2,2.9,16.7,1.3c8.6-2.3,17.7-8.9,24.4-17.6c2.6-3.4,4.9-7,6.9-10.7c6.7,0,13.7-2.4,20.5-7.3c1.6-1.1,3.1-2.4,4.6-3.6
			c-0.2,0.6-0.3,1.3-0.5,1.9c-4.3,17.8,1.4,26.2,6.8,30c9.9,7.1,22.1,2.4,30.1-4.4c5.6-4.7,10.6-11.2,14.7-19.2
			c0.4,2.4,1.2,4.7,2.5,6.8c2.2,3.7,5.9,6.2,10.2,7c11.5,2.4,20.5-7.9,24.8-12.9c4.1-4.8,11.7-16.2,14.6-20.5h32.3
			c2.1,0,3.8-1.7,3.8-3.8V80.6C449.3,78.5,447.6,76.8,445.5,76.8C445.5,76.8,445.5,76.8,445.5,76.8z M153.2,264.8
			c-6.3,17-13.5,36.2-25.1,47.9c-4.2,4.2-11.3,7.4-17.3,4.7s-8.1-10.4-7.2-16.3c3.8-25.2,30.1-39.2,54.5-49.1
			C156.5,256,154.9,260.3,153.2,264.8L153.2,264.8z M280.5,200.2c-0.7-0.2-1.5-0.4-2.2-0.7c-10.8-4-16.7-14.8-14.6-26.9
			c0.5-3.8,2.4-7.3,5.4-9.8c1.7-1.3,3.8-2,6-2c2.2,0,4.4,0.8,6,2.3c2.3,2.2,3.6,5.8,4.1,11C285.9,183.1,284.2,192.1,280.5,200.2
			L280.5,200.2z"/>
		<path class="st0" d="M119.7,126.5H75.3V82.1c0-2.8-2.3-5-5-5s-5,2.3-5,5v44.4H20.8c-2.8,0-5,2.2-5,5c0,2.8,2.2,5,5,5h44.4v44.4
			c0,2.8,2.3,5,5,5s5-2.3,5-5v-44.4h44.4c2.8,0,5-2.2,5-5C124.7,128.7,122.5,126.5,119.7,126.5L119.7,126.5z"/>
	</g>
</g>
</svg>
