<?xml version="1.0" encoding="utf-8"?>
<!-- Generator: Adobe Illustrator 25.2.3, SVG Export Plug-In . SVG Version: 6.00 Build 0)  -->
<svg version="1.1" id="レイヤー_1" xmlns="http://www.w3.org/2000/svg" xmlns:xlink="http://www.w3.org/1999/xlink" x="0px"
	 y="0px" viewBox="0 0 194.8 206.7" style="enable-background:new 0 0 194.8 206.7;" xml:space="preserve">
<g id="レイヤー_2_1_">
	<g id="ヘッダー">
		<path d="M0.1,0h9.4L3.1,4.6V4.3l6.5,4.5H0.1V8.2h8H7.8L2.3,4.4l0,0l5.4-3.9l0.3,0.1h-8V0z"/>
		<path d="M9.3,13.1v0.6H0.1v-0.6H9.3z"/>
		<path d="M3.4,20.3l5.9-3.5v0.8l-5.4,3.1v-0.2l5.4,3.1v0.8l-6-3.4H0.1v-0.6L3.4,20.3z"/>
		<path d="M3.2,28.2c-0.5,0-1,0.1-1.4,0.3c-0.4,0.2-0.7,0.5-0.9,0.9c-0.4,0.8-0.4,1.8,0,2.6c0.2,0.4,0.5,0.7,0.9,0.9
			c0.4,0.2,0.9,0.3,1.4,0.3h6.1v0.6H3.2c-0.6,0-1.2-0.1-1.7-0.4c-0.5-0.3-0.8-0.7-1.1-1.1c-0.5-1-0.5-2.2,0-3.2
			C0.6,28.6,1,28.3,1.5,28c0.5-0.3,1.1-0.4,1.7-0.4h6.1v0.6L3.2,28.2z"/>
		<path d="M9.3,42.7v6H8.7V46H0.1v-0.6h8.6v-2.7H9.3z"/>
		<path d="M4.7,50.8c0.6,0,1.2,0.1,1.8,0.4c0.6,0.2,1.1,0.6,1.5,1c0.4,0.4,0.8,0.9,1,1.5c0.2,0.6,0.4,1.2,0.4,1.8
			c0,0.6-0.1,1.3-0.4,1.8c-0.2,0.6-0.6,1.1-1,1.5c-0.4,0.4-0.9,0.8-1.5,1c-0.6,0.2-1.2,0.4-1.8,0.4c-0.6,0-1.3-0.1-1.8-0.4
			c-1.1-0.5-2-1.4-2.5-2.5C0.1,56.7,0,56.1,0,55.5c0-0.6,0.1-1.2,0.3-1.8c0.2-0.6,0.6-1.1,1-1.5c0.4-0.4,0.9-0.8,1.5-1
			C3.4,50.9,4.1,50.8,4.7,50.8z M4.7,51.4c-1.6,0-3.1,1-3.8,2.5c-0.2,0.5-0.3,1-0.3,1.6c0,0.5,0.1,1.1,0.3,1.6
			c0.2,0.5,0.5,0.9,0.9,1.3c1.2,1.2,3,1.5,4.5,0.9c0.5-0.2,0.9-0.5,1.3-0.9C8,58,8.3,57.6,8.5,57.1c0.4-1,0.4-2.2,0-3.2
			C8.3,53.4,8,53,7.6,52.6C6.8,51.8,5.8,51.4,4.7,51.4L4.7,51.4z"/>
		<path d="M0.1,63.9h9.4l-6.5,4.6v-0.3l6.5,4.5H0.1v-0.6h8H7.8l-5.5-3.8l0,0l5.4-3.9l0.3,0.1h-8V63.9z"/>
		<path d="M9.3,77v0.6H0.1V77H9.3z"/>
		<path d="M9.3,80.9v6H8.7v-2.7H0.1v-0.6h8.6v-2.7H9.3z"/>
		<path d="M0.1,88.4l9.6,3.9v0.1l-9.6,3.9v-0.7l8.6-3.4L9,92.6l-8.9-3.5V88.4z M3.8,90.3v4.1l-0.6,0.2v-4.4L3.8,90.3z"/>
		<path d="M4.7,104.4c0.6,0,1.2,0.1,1.8,0.4c0.6,0.2,1.1,0.6,1.5,1c0.4,0.4,0.8,0.9,1,1.5c0.2,0.6,0.4,1.2,0.4,1.8
			c0,1.3-0.5,2.5-1.4,3.3c-0.4,0.4-0.9,0.8-1.5,1c-0.6,0.2-1.2,0.4-1.8,0.4c-1.3,0-2.5-0.5-3.3-1.4c-0.9-0.9-1.4-2.1-1.3-3.3
			c0-0.6,0.1-1.2,0.3-1.8c0.2-0.6,0.6-1.1,1-1.5c0.4-0.4,0.9-0.8,1.5-1C3.4,104.5,4.1,104.4,4.7,104.4z M4.7,105.1
			c-1.1,0-2.1,0.4-2.9,1.2c-0.8,0.8-1.2,1.8-1.2,2.9c0,1.1,0.4,2.1,1.2,2.9c0.4,0.4,0.8,0.7,1.3,0.9c0.5,0.2,1.1,0.3,1.6,0.3
			c0.5,0,1.1-0.1,1.6-0.3c0.5-0.2,0.9-0.5,1.3-0.9c0.4-0.4,0.7-0.8,0.9-1.3c0.4-1,0.4-2.2,0-3.2c-0.2-0.5-0.5-0.9-0.9-1.3
			c-0.4-0.4-0.8-0.7-1.3-0.9C5.8,105.2,5.2,105.1,4.7,105.1L4.7,105.1z"/>
		<path d="M9.3,117.5v5.2H8.7v-4.5H4.9v4H4.3v-4H0.1v-0.6H9.3z"/>
		<path d="M9.3,126v5.2H8.7v-4.5H4.9v4H4.3v-4H0.1V126H9.3z"/>
		<path d="M9.3,134.6v0.6H0.1v-0.6H9.3z"/>
		<path d="M0.7,146.1c-0.1-0.2-0.2-0.5-0.3-0.7c-0.1-0.3-0.2-0.6-0.3-0.9c-0.2-1-0.1-2,0.3-2.9c0.2-0.5,0.6-1,1-1.5
			c0.4-0.4,0.9-0.7,1.5-0.9c0.6-0.2,1.2-0.3,1.8-0.3c0.6,0,1.3,0.1,1.9,0.4c0.6,0.2,1.1,0.6,1.5,1c0.4,0.4,0.8,0.9,1,1.5
			c0.3,0.6,0.4,1.2,0.4,1.8c0,0.5-0.1,0.9-0.2,1.4c-0.1,0.4-0.3,0.8-0.5,1.1l-0.6-0.3c0.2-0.3,0.4-0.6,0.5-1
			c0.1-0.4,0.2-0.8,0.2-1.2c0-0.5-0.1-1.1-0.3-1.6c-0.2-0.5-0.5-0.9-0.9-1.3c-0.4-0.4-0.8-0.7-1.3-0.9c-0.5-0.2-1.1-0.3-1.6-0.3
			c-0.5,0-1.1,0.1-1.6,0.3c-0.5,0.2-0.9,0.5-1.3,0.8c-0.4,0.4-0.7,0.8-0.9,1.3c-0.2,0.5-0.3,1.1-0.3,1.6c0,0.4,0.1,0.8,0.2,1.2
			c0.1,0.4,0.3,0.7,0.5,1L0.7,146.1z"/>
		<path d="M9.3,149.4v0.6H0.1v-0.6H9.3z"/>
		<path d="M0.1,153.3l9.6,3.9v0.1l-9.6,3.9v-0.7l8.6-3.4l0.2,0.4l-8.9-3.6V153.3z M3.8,155.2v4.1l-0.6,0.2V155L3.8,155.2z"/>
		<path d="M9.3,164.4v0.6H0.7v5.1H0.1v-5.7L9.3,164.4z"/>
		<path d="M8.3,183.4c0.1-0.3,0.3-0.7,0.4-1c0.1-0.4,0.2-0.8,0.2-1.2c0-0.5-0.1-1-0.5-1.4c-0.3-0.4-0.7-0.6-1.1-0.6
			c-0.3,0-0.6,0.1-0.9,0.3c-0.2,0.2-0.4,0.5-0.6,0.8c-0.2,0.3-0.3,0.7-0.5,1.1s-0.2,0.6-0.4,0.9c-0.1,0.3-0.3,0.6-0.5,0.8
			c-0.2,0.2-0.5,0.4-0.7,0.6C3.3,183.9,3,184,2.6,184c-0.5,0-0.9-0.1-1.4-0.4c-0.4-0.2-0.7-0.6-0.9-1c-0.2-0.5-0.3-1-0.3-1.5
			c0-0.4,0.1-0.8,0.2-1.2c0.1-0.3,0.2-0.7,0.4-1c0.2-0.3,0.3-0.5,0.4-0.7l0.5,0.3c-0.2,0.2-0.3,0.5-0.4,0.7
			c-0.1,0.3-0.3,0.6-0.4,0.9c-0.1,0.3-0.1,0.7-0.1,1c0,0.4,0.1,0.7,0.2,1.1c0.1,0.3,0.4,0.6,0.7,0.9c0.3,0.2,0.7,0.4,1.1,0.4
			c0.4,0,0.8-0.1,1.1-0.4c0.3-0.2,0.5-0.5,0.7-0.8c0.2-0.4,0.3-0.7,0.5-1.1c0.1-0.3,0.2-0.6,0.3-0.9c0.1-0.3,0.3-0.6,0.5-0.8
			c0.2-0.2,0.4-0.4,0.6-0.6c0.3-0.1,0.6-0.2,0.9-0.2c0.4,0,0.8,0.1,1.2,0.3c0.3,0.2,0.6,0.5,0.8,0.9c0.2,0.4,0.3,0.9,0.3,1.3
			c0,0.4-0.1,0.9-0.2,1.3c-0.1,0.4-0.2,0.8-0.4,1.2L8.3,183.4z"/>
		<path d="M9.3,187.6v0.6H0.1v-0.6H9.3z"/>
		<path d="M9.3,191.5v6H8.7v-2.7H0.1v-0.6h8.6v-2.6H9.3z"/>
		<path d="M9.3,200.8v5.7H8.7v-5.1H5.1v4.5H4.4v-4.6H0.7v5.2H0.1v-5.9H9.3z"/>
		<path d="M193.5,0.5H73.9c-0.7,0.1-1.3,0.7-1.2,1.4c0.1,0.6,0.6,1.2,1.2,1.2h118.3v33.1h-10.7c0,0-0.1,0-0.1,0c-0.1,0-0.2,0-0.3,0
			l-0.2,0.1c-0.1,0-0.1,0.1-0.2,0.1c-0.1,0.1-0.1,0.1-0.2,0.2l-0.1,0.1c0,0.1-3.6,5.6-5.3,7.5c-1.8,2.1-4,4.1-6.2,3.7
			c-0.8-0.1-1.4-0.6-1.8-1.2c-1.6-2.6,0.1-8.5,1-11.6l0.2-0.7c0.1-0.2,0.1-0.4,0.1-0.5c0.2-0.7-0.2-1.4-0.9-1.6c0,0,0,0,0,0
			c-0.7-0.2-1.4,0.2-1.6,0.9c0,0,0,0,0,0l0,0l-0.1,0.5c-1,3.3-2.2,6.6-3.6,9.7c-1.1,2.7-2.8,5.1-5,7c-2,1.6-5.1,3-7.4,1.4
			s-2-5.1-1.3-7.8c0.7-2.5,1.6-5,2.8-7.4c0.4-0.9,0.8-1.8,1.2-2.7l0,0c0.2-0.7-0.2-1.4-0.9-1.7c-0.6-0.2-1.3,0.1-1.5,0.7
			c-1.5,3.6-3.9,6.7-7.1,9c-1.3,1-2.8,1.6-4.4,1.9c1.2-3,1.7-6.2,1.5-9.5c0-2.1-0.8-4-2.2-5.5c-2.2-1.9-5.4-2-7.7-0.3
			c-1.6,1.3-2.6,3.1-2.9,5.1c-1.1,5.2,1.8,10.5,6.8,12.3l0.4,0.2c-0.5,0.9-1.1,1.8-1.7,2.6c-1.5,2-4.2,4.4-7.1,5.2
			c-1.3,0.4-2.7,0.3-4-0.3c-2-1-2.9-3.7-2.9-5.9c0-0.2,0-0.5,0-0.7c3.4-3.5,5.9-7.7,7.2-12.4c0.5-1,0.1-2.3-0.9-2.8
			c-1-0.5-2.3-0.1-2.8,0.9c-2.1,2.6-3.7,5.5-4.9,8.7c-0.6,1.4-1,2.8-1.2,4.3c-1.9,1.9-3.9,3.5-6.1,5c-3.3,2.3-6.9,4.1-10.7,5.6
			l-1.8,0.7c3.6-8.4,7.7-16.6,12.5-24.4l0.6-1c0.3-0.7,0.1-1.5-0.6-1.8c-0.6-0.3-1.3-0.1-1.7,0.4l-0.6,1c-1.7,2.7-3.4,5.2-4.8,7.1
			c-2.5,3.5-5.3,6.9-9.1,7.7c-0.9,0.2-1.8,0.1-2.6-0.3c-0.7-0.4-1.1-1-1.3-1.7c-0.6-2.2,1.5-5.9,2.8-8.2l0.3-0.5
			c0.9-1.6,1.8-3.1,2.8-4.5c0.2-0.3,0.4-0.5,0.6-0.8c0.4-0.6,0.3-1.4-0.3-1.8c-0.6-0.4-1.4-0.3-1.8,0.3c-0.2,0.3-0.4,0.5-0.6,0.8
			c-2.6,3.8-6.8,6.3-11.4,6.7c-2.7,0.3-5.4,0.3-8.1,0c-0.7-0.1-1.4,0.4-1.5,1.1c-0.1,0.7,0.4,1.4,1.1,1.5l0,0c2.9,0.3,5.9,0.3,8.8,0
			c2.4-0.2,4.6-0.9,6.7-2c-1.3,2.5-2.6,5.6-1.9,8c0.4,1.4,1.3,2.7,2.6,3.4c1.4,0.7,2.9,0.9,4.4,0.5c1.9-0.4,3.7-1.3,5.3-2.6
			c-1.8,3.8-3.7,7.8-5.5,12.2c-9.8,3.9-21.5,9.2-23.1,20.3c-0.5,3.1,0.8,7,4,8.5c0.9,0.4,1.8,0.6,2.7,0.6c2.4-0.1,4.6-1.1,6.3-2.8
			c4.5-4.5,7.1-11.5,9.4-17.7c0.6-1.6,1.2-3.1,1.8-4.6l0.9-2.2l1.8-0.6l2.4-1c3.9-1.5,7.7-3.5,11.2-5.9c1.6-1.1,3.1-2.2,4.5-3.5
			c0.4,2.6,1.8,5.3,4.3,6.5c1.8,0.8,3.9,1,5.9,0.5c3.4-1.1,6.4-3.3,8.5-6.2c0.9-1.2,1.7-2.4,2.4-3.8h0.1c2.6-0.1,5.1-1,7.1-2.5
			c0.6-0.4,1.1-0.8,1.6-1.3c-0.1,0.2-0.1,0.4-0.2,0.7c-1.5,6.2,0.5,9.2,2.4,10.5c3.5,2.5,7.9,0.7,10.6-1.5c2.2-1.9,3.9-4.2,5.2-6.8
			c0.1,0.8,0.4,1.7,0.9,2.4c0.8,1.3,2.1,2.2,3.6,2.5c4,0.8,7.2-2.8,8.7-4.5s4.1-5.7,5.1-7.2h11.3c0.7,0,1.3-0.6,1.3-1.3c0,0,0,0,0,0
			V1.9C194.8,1.1,194.2,0.5,193.5,0.5L193.5,0.5z M91,66.5c-2.2,6-4.7,12.7-8.8,16.8c-1.5,1.5-4,2.6-6.1,1.6s-2.8-3.7-2.5-5.7
			c1.3-8.8,10.5-13.8,19.1-17.2C92.1,63.4,91.6,64.9,91,66.5z M135.6,43.8c-0.3-0.1-0.5-0.1-0.8-0.2c-3.8-1.4-6-5.4-5.1-9.4
			c0.2-1.3,0.9-2.6,1.9-3.5c0.6-0.5,1.3-0.7,2.1-0.7c0.8,0,1.5,0.3,2.1,0.8c0.9,1.1,1.4,2.4,1.4,3.9C137.5,37.8,136.9,41,135.6,43.8
			L135.6,43.8z"/>
		<path d="M79.2,18H63.7V2.4c-0.1-1-0.9-1.7-1.9-1.6c-0.9,0.1-1.6,0.8-1.6,1.6V18H44.5c-1,0-1.8,0.8-1.8,1.8s0.8,1.8,1.8,1.8h15.6
			V37c0.1,1,0.9,1.7,1.9,1.6c0.9-0.1,1.6-0.8,1.6-1.6V21.5h15.6c1,0,1.8-0.8,1.8-1.8S80.2,18,79.2,18L79.2,18z"/>
	</g>
</g>
</svg>
