<?xml version="1.0" encoding="utf-8"?>
<!-- Generator: Adobe Illustrator 25.2.3, SVG Export Plug-In . SVG Version: 6.00 Build 0)  -->
<svg version="1.1" id="レイヤー_1" xmlns="http://www.w3.org/2000/svg" xmlns:xlink="http://www.w3.org/1999/xlink" x="0px"
	 y="0px" viewBox="0 0 312.5 156.8" style="enable-background:new 0 0 312.5 156.8;" xml:space="preserve">
<g id="レイヤー_2_1_">
	<g id="ヘッダー">
		<path d="M28.2,0.9h14.5l0,0l-9.9,7l0.1-0.4l9.9,7l0,0H28.2v-1h12.3l-0.5,0.1l-8.3-5.9l0,0l8.3-6l0.4,0.2H28.2V0.9z"/>
		<path d="M42.4,21v1H28.2v-1H42.4z"/>
		<path d="M33.2,32.1l9.1-5.3V28L34,32.8v-0.3l8.3,4.8v1.2L33.2,33h-5v-1L33.2,32.1z"/>
		<path d="M33,44.1c-0.7,0-1.5,0.2-2.1,0.5c-0.6,0.3-1.1,0.8-1.4,1.4c-0.3,0.6-0.5,1.3-0.5,2c0,0.7,0.2,1.4,0.5,2
			c0.3,0.6,0.8,1.1,1.4,1.4c0.7,0.4,1.4,0.6,2.2,0.6h9.4v1h-9.5c-0.9,0-1.8-0.2-2.6-0.7c-0.7-0.4-1.3-1-1.7-1.8
			c-0.8-1.6-0.8-3.4,0-5c0.4-0.7,1-1.3,1.7-1.8c0.8-0.4,1.7-0.7,2.6-0.6h9.5v1L33,44.1z"/>
		<path d="M42.4,66.4v9.3h-0.9v-4.2H28.2v-1h13.3v-4.1H42.4z"/>
		<path d="M35.2,78.8c1,0,1.9,0.2,2.8,0.6c0.9,0.4,1.7,0.9,2.3,1.6c0.7,0.7,1.2,1.4,1.6,2.3c0.4,0.9,0.5,1.8,0.5,2.8
			c0,1-0.2,1.9-0.5,2.8c-0.4,0.9-0.9,1.7-1.6,2.3c-0.7,0.7-1.5,1.2-2.3,1.6c-1.8,0.8-3.8,0.8-5.6,0c-0.9-0.4-1.6-0.9-2.3-1.6
			C28.8,89.8,28,87.9,28,86c0-1.9,0.7-3.8,2.1-5.1c0.7-0.7,1.4-1.2,2.3-1.6C33.3,78.9,34.3,78.8,35.2,78.8z M35.2,79.8
			c-1.7,0-3.3,0.6-4.4,1.8c-0.6,0.6-1,1.3-1.4,2c-0.3,0.8-0.5,1.6-0.5,2.4c0,0.8,0.2,1.7,0.5,2.5c0.6,1.5,1.8,2.7,3.3,3.3
			c1.6,0.7,3.3,0.7,4.9,0c0.7-0.3,1.4-0.8,2-1.3c0.6-0.6,1-1.3,1.4-2c0.3-0.8,0.5-1.6,0.5-2.4c0-0.8-0.2-1.7-0.5-2.5
			c-0.3-0.8-0.8-1.4-1.4-2c-0.6-0.6-1.3-1-2-1.3C36.9,79.9,36.1,79.8,35.2,79.8L35.2,79.8z"/>
		<path d="M28.2,98.9h14.5l0,0l-9.9,7l0.1-0.4l9.9,7l0,0H28.2v-1h12.3l-0.5,0.1l-8.3-5.9l0,0l8.3-6l0.4,0.2H28.2V98.9z"/>
		<path d="M42.4,118.9v1H28.2v-1H42.4z"/>
		<path d="M42.4,124.9v9.3h-0.9V130H28.2v-1h13.3v-4.1L42.4,124.9z"/>
		<path d="M28.2,136.4l14.8,6v0.1l-14.8,6v-1.1l13.3-5.2l0.4,0.7l-13.6-5.5V136.4z M33.8,139.3v6.3l-0.9,0.3v-6.8L33.8,139.3z"/>
		<path d="M7.2,0c1,0,1.9,0.2,2.8,0.6c0.9,0.4,1.7,0.9,2.3,1.6c0.7,0.7,1.2,1.4,1.6,2.3c0.4,0.9,0.6,1.8,0.6,2.8
			c0,1-0.2,1.9-0.6,2.8c-0.4,0.9-0.9,1.7-1.6,2.3c-0.7,0.7-1.5,1.2-2.4,1.6c-0.9,0.4-1.8,0.6-2.8,0.6c-1,0-1.9-0.2-2.8-0.6
			c-0.9-0.4-1.6-0.9-2.3-1.6C0.7,11.1,0,9.2,0,7.2c0-1.9,0.7-3.8,2.1-5.1c0.7-0.7,1.4-1.2,2.3-1.6C5.3,0.2,6.3,0,7.2,0z M7.2,1
			C5.6,1,4,1.6,2.8,2.8c-0.6,0.6-1,1.3-1.4,2C1.1,5.6,0.9,6.4,0.9,7.2c0,0.8,0.2,1.7,0.5,2.5c0.6,1.5,1.8,2.7,3.4,3.3
			c0.8,0.3,1.6,0.5,2.5,0.5c0.8,0,1.7-0.2,2.4-0.5c0.7-0.3,1.4-0.8,2-1.4c0.6-0.6,1-1.3,1.4-2c0.3-0.8,0.5-1.6,0.5-2.4
			c0-0.8-0.2-1.7-0.5-2.5c-0.3-0.8-0.8-1.4-1.4-2c-0.6-0.6-1.3-1-2-1.3C8.9,1.1,8.1,1,7.2,1L7.2,1z"/>
		<path d="M14.4,20.1v8h-0.9v-7H7.6v6.2H6.6v-6.2H0.2v-1L14.4,20.1z"/>
		<path d="M14.4,33.1v8h-0.9v-7H7.6v6.2H6.6v-6.2H0.2v-1L14.4,33.1z"/>
		<path d="M14.4,46.2v1H0.2v-1H14.4z"/>
		<path d="M1.1,63.9c-0.2-0.3-0.4-0.7-0.5-1.1c-0.2-0.4-0.3-0.9-0.4-1.3C0,61,0,60.5,0,59.9c0-1,0.2-2,0.6-2.9
			c0.4-0.9,0.9-1.6,1.6-2.3c0.7-0.6,1.4-1.1,2.3-1.5c0.9-0.3,1.8-0.5,2.8-0.5c1,0,2,0.2,2.9,0.5c0.9,0.3,1.7,0.9,2.3,1.5
			c0.7,0.6,1.2,1.4,1.6,2.3c0.6,1.6,0.7,3.3,0.2,4.9c-0.2,0.6-0.4,1.2-0.8,1.8l-0.9-0.4c0.3-0.5,0.6-1,0.7-1.6
			c0.2-0.6,0.3-1.2,0.3-1.9c0-0.8-0.2-1.6-0.5-2.4c-0.3-0.7-0.8-1.4-1.4-2c-0.6-0.6-1.3-1-2-1.3c-0.8-0.3-1.6-0.5-2.5-0.5
			c-0.8,0-1.6,0.1-2.4,0.4c-0.7,0.3-1.4,0.7-2,1.2c-0.6,0.6-1,1.2-1.4,2c-0.4,0.8-0.5,1.7-0.5,2.7c0,0.6,0.1,1.3,0.3,1.9
			c0.2,0.5,0.5,1,0.8,1.5L1.1,63.9z"/>
		<path d="M14.4,69v1H0.2v-1H14.4z"/>
		<path d="M0.2,74.9l14.8,6V81L0.2,87v-1.1l13.3-5.2l0.4,0.7L0.2,75.9V74.9z M5.8,77.8v6.3l-0.9,0.3v-6.8L5.8,77.8z"/>
		<path d="M14.4,91.9v1H1.1v7.8H0.2v-8.8H14.4z"/>
		<path d="M12.8,121.2c0.2-0.5,0.4-1,0.6-1.5c0.2-0.6,0.3-1.2,0.3-1.8c0-0.8-0.2-1.6-0.7-2.2c-0.4-0.5-1.1-0.8-1.8-0.8
			c-0.5,0-1,0.2-1.3,0.5c-0.4,0.4-0.7,0.8-0.9,1.3c-0.2,0.5-0.5,1.1-0.7,1.7s-0.4,0.9-0.6,1.4c-0.2,0.4-0.5,0.9-0.8,1.2
			c-0.3,0.4-0.7,0.7-1.1,0.9c-0.5,0.2-1.1,0.3-1.7,0.3c-0.7,0-1.5-0.2-2.1-0.6c-0.6-0.4-1.1-0.9-1.4-1.6c-0.3-0.7-0.5-1.5-0.5-2.3
			c0-0.7,0.1-1.3,0.3-1.9c0.2-0.5,0.4-1,0.6-1.5c0.2-0.4,0.4-0.8,0.6-1l0.8,0.5c-0.2,0.3-0.5,0.7-0.6,1.1c-0.2,0.4-0.4,0.9-0.5,1.3
			c-0.1,0.5-0.2,1-0.2,1.5c0,0.6,0.1,1.1,0.3,1.7c0.2,0.5,0.6,1,1,1.3c0.5,0.4,1.1,0.6,1.8,0.5c0.6,0,1.2-0.2,1.6-0.5
			c0.4-0.4,0.8-0.8,1-1.3c0.3-0.5,0.5-1.1,0.7-1.7c0.2-0.5,0.4-0.9,0.6-1.4c0.2-0.4,0.4-0.9,0.7-1.2c0.3-0.4,0.6-0.7,1-0.9
			c0.4-0.2,0.9-0.3,1.4-0.3c0.6,0,1.3,0.2,1.8,0.5c0.5,0.4,1,0.9,1.3,1.5c0.3,0.6,0.4,1.3,0.4,2c0,0.7-0.1,1.3-0.3,2
			c-0.1,0.6-0.4,1.2-0.7,1.8L12.8,121.2z"/>
		<path d="M14.4,127.5v1H0.2v-1H14.4z"/>
		<path d="M14.4,133.5v9.3h-0.9v-4.2H0.2v-1h13.3v-4.1L14.4,133.5z"/>
		<path d="M14.4,147.7v8.8h-0.9v-7.8H7.8v7H6.8v-7H1.1v8.1H0.2v-9L14.4,147.7z"/>
		<path d="M310.3,0.6H115.2c-1.2-0.1-2.2,0.8-2.3,2s0.8,2.2,2,2.3c0.1,0,0.2,0,0.3,0h193v54h-17.5c-0.1,0-0.1,0-0.2,0
			c-0.2,0-0.3,0-0.5,0.1c-0.1,0-0.2,0.1-0.4,0.2c-0.1,0.1-0.2,0.1-0.4,0.2c-0.1,0.1-0.2,0.2-0.3,0.3c0,0.1-0.1,0.1-0.2,0.2
			s-5.9,9.1-8.6,12.2c-2.9,3.4-6.5,6.7-10,6c-1.2-0.2-2.3-0.9-3-2c-2.5-4.2,0.2-13.8,1.7-19l0.3-1.1c0.1-0.3,0.2-0.6,0.2-0.9
			c0.4-1.1-0.2-2.4-1.4-2.7c-1.1-0.4-2.4,0.2-2.7,1.4c0,0.1,0,0.2-0.1,0.2l0,0l-0.2,0.8c-1.6,5.4-3.6,10.7-5.9,15.8
			c-1.9,4.4-4.7,8.3-8.2,11.5c-3.2,2.7-8.3,4.9-12,2.3s-3.2-8.3-2.2-12.7c1.1-4.1,2.6-8.1,4.5-12c0.7-1.5,1.3-3,1.9-4.5l0,0
			c0.5-1.1-0.1-2.4-1.2-2.8s-2.4,0.1-2.8,1.2c-2.4,5.8-6.4,10.9-11.5,14.6c-2.1,1.6-4.6,2.7-7.1,3.2c2-4.9,2.8-10.2,2.4-15.4
			c-0.4-4-1.6-7-3.6-9c-3.5-3.2-8.8-3.4-12.5-0.5c-2.5,2.1-4.2,5.1-4.7,8.3c-1.6,8.9,3,17.2,11.1,20.1c0.2,0.1,0.5,0.2,0.7,0.2
			c-0.9,1.5-1.8,2.9-2.9,4.3c-2.5,3.3-6.9,7.2-11.6,8.5c-2.2,0.6-4.5,0.5-6.6-0.4c-3.3-1.6-4.8-6.1-4.8-9.6c0-0.4,0-0.7,0-1.1
			c5.5-5.7,9.6-12.6,11.9-20.2c0.8-2.8-0.8-4.1-1.3-4.4c-1.1-0.7-3-0.7-4.7,1.4c-3.4,4.3-6.1,9.1-8,14.2c-0.9,2.3-1.6,4.6-1.9,7.1
			c-3,3-6.3,5.7-9.9,8.1c-5.4,3.7-11.3,6.7-17.4,9.1l-3,1.1c5.8-13.8,12.6-27.1,20.4-39.8l1-1.6c0.6-1,0.4-2.3-0.6-3c0,0,0,0-0.1,0
			c-1-0.6-2.4-0.3-3,0.7c0,0,0,0,0,0l-1,1.6c-2.8,4.3-5.6,8.5-7.8,11.6c-4.1,5.8-8.7,11.3-14.9,12.6c-1.4,0.4-2.9,0.2-4.3-0.4
			c-1.1-0.6-1.9-1.6-2.2-2.8c-0.9-3.6,2.5-9.7,4.5-13.3l0.5-0.8c1.4-2.5,2.9-5,4.5-7.3c0.3-0.4,0.6-0.9,0.9-1.3c0.6-1,0.3-2.3-0.7-3
			c-0.9-0.6-2.1-0.3-2.8,0.5c-0.3,0.4-0.6,0.9-0.9,1.3c-6.9,9.4-15,10.4-18.5,10.8c-4.4,0.5-8.9,0.5-13.3,0
			c-1.2-0.2-2.3,0.5-2.6,1.7c-0.2,1.2,0.5,2.3,1.7,2.6c0.1,0,0.2,0,0.3,0c4.8,0.6,9.6,0.6,14.4,0c3.8-0.4,7.6-1.4,11-3.2
			c-2.1,4.1-4.2,9.1-3.1,13.1c0.6,2.4,2.2,4.4,4.3,5.5c2.2,1.1,4.8,1.4,7.2,0.9c3.1-0.7,6.1-2.1,8.6-4.2c-3,6.2-6,12.8-9,20
			c-15.9,6.2-35,14.9-37.7,33c-0.8,5,1.3,11.4,6.6,13.9c1.4,0.7,2.9,1,4.5,1c3.9-0.1,7.6-1.8,10.3-4.5c7.3-7.4,11.6-18.8,15.3-28.9
			c1-2.6,1.9-5.1,2.9-7.4c0.5-1.2,1-2.4,1.5-3.6l2.9-1.1l3.9-1.5c6.4-2.5,12.6-5.7,18.3-9.6c2.6-1.7,5-3.6,7.4-5.7
			c0.7,4.2,2.9,8.6,7,10.6c3,1.4,6.4,1.6,9.6,0.7c4.9-1.3,10.1-5.1,13.9-10.1c1.5-1.9,2.8-4,3.9-6.1h0.1c4.2-0.1,8.3-1.6,11.6-4.2
			c0.9-0.7,1.8-1.3,2.6-2.1c-0.1,0.4-0.2,0.7-0.3,1.1c-2.4,10.2,0.8,15,3.9,17.2c5.7,4.1,12.9,1.2,17.2-2.5c3.5-3.1,6.4-6.8,8.4-11
			c0.2,1.4,0.7,2.7,1.4,3.9c1.3,2.1,3.4,3.6,5.8,4c6.6,1.4,11.7-4.5,14.2-7.4s6.7-9.2,8.3-11.7h18.5c1.2,0,2.2-1,2.2-2.2v0V2.8
			C312.5,1.6,311.5,0.7,310.3,0.6z M143.1,108.2c-3.6,9.7-7.7,20.7-14.4,27.4c-2.4,2.4-6.5,4.2-9.9,2.7s-4.6-6-4.1-9.3
			c2.2-14.4,17.2-22.4,31.2-28.1C145,103.2,144.1,105.7,143.1,108.2z M215.9,71.3c-0.4-0.1-0.8-0.2-1.2-0.4
			c-6.2-2.3-9.6-8.4-8.4-15.3c0.3-2.2,1.4-4.2,3.1-5.6c1-0.7,2.2-1.1,3.4-1.1c1.3,0,2.5,0.4,3.4,1.3c1.3,1.3,2.1,3.3,2.3,6.3
			C219,61.5,218.1,66.6,215.9,71.3z"/>
		<path d="M123.9,29.1H98.5V3.7c-0.1-1.6-1.5-2.8-3-2.7C94,1,92.9,2.2,92.8,3.7v25.4H67.4c-1.6,0.1-2.8,1.5-2.7,3
			c0.1,1.5,1.2,2.6,2.7,2.7h25.4v25.4c0.1,1.6,1.5,2.8,3,2.7c1.5-0.1,2.6-1.2,2.7-2.7V34.8h25.4c1.6,0.1,3-1.1,3-2.7
			c0.1-1.6-1.1-3-2.7-3C124.2,29.1,124,29.1,123.9,29.1z"/>
	</g>
</g>
</svg>
