<?xml version="1.0" encoding="utf-8"?>
<!-- Generator: Adobe Illustrator 25.2.3, SVG Export Plug-In . SVG Version: 6.00 Build 0)  -->
<svg version="1.1" id="レイヤー_1" xmlns="http://www.w3.org/2000/svg" xmlns:xlink="http://www.w3.org/1999/xlink" x="0px"
	 y="0px" viewBox="0 0 181 171.5" style="enable-background:new 0 0 181 171.5;" xml:space="preserve">
<style type="text/css">
	.st0{fill:#FFFFFF;}
</style>
<g id="レイヤー_2_1_">
	<g id="テキスト">
		<path class="st0" d="M179.5,67.4H37c-0.9,0.1-1.5,0.8-1.4,1.7c0.1,0.8,0.7,1.4,1.4,1.4h140.9V110h-12.8c-0.1,0-0.1,0-0.2,0
			c-0.1,0-0.2,0-0.3,0.1c-0.1,0-0.2,0.1-0.3,0.1l-0.2,0.2c-0.1,0.1-0.2,0.1-0.2,0.2c0,0-0.1,0.1-0.1,0.1s-4.3,6.7-6.3,8.9
			c-2.1,2.5-4.7,4.9-7.3,4.4c-0.9-0.1-1.7-0.7-2.2-1.5c-1.9-3.1,0.1-10.1,1.2-13.8l0.4-1.4c0.2-0.8-0.3-1.7-1.1-1.9
			c-0.8-0.2-1.7,0.3-1.9,1.1c0,0,0,0,0,0l0,0c-1.2,4.1-2.7,8.2-4.5,12.1c-1.4,3.2-3.4,6.1-6,8.4c-2.4,2-6.1,3.6-8.7,1.7
			s-2.4-6.1-1.6-9.2c0.8-3,1.9-5.9,3.3-8.8c0.5-1.1,1-2.2,1.4-3.2l0,0c0.3-0.8-0.2-1.7-1-2c-0.7-0.2-1.6,0.1-1.9,0.8
			c-1.8,4.3-4.7,7.9-8.4,10.7c-1.5,1.2-3.3,2-5.2,2.3c1.4-3.6,2-7.4,1.7-11.3c-0.3-3-1.1-5.1-2.7-6.6c-2.6-2.3-6.4-2.5-9.1-0.3
			c-1.9,1.5-3.1,3.7-3.4,6.1c-1.3,6.2,2.2,12.5,8.1,14.7c0.2,0.1,0.3,0.1,0.5,0.2c-0.6,1.1-1.3,2.2-2.1,3.2
			c-2.1,2.9-5.1,5.1-8.5,6.2c-1.6,0.5-3.3,0.3-4.8-0.3c-2.4-1.2-3.5-4.4-3.5-7c0-0.3,0-0.5,0-0.8c4-4.1,7-9.2,8.6-14.7
			c0.6-2.1-0.6-3-0.9-3.2c-0.8-0.5-2.2-0.5-3.4,1c-2.5,3.1-4.5,6.6-5.9,10.3c-0.7,1.7-1.1,3.4-1.4,5.2c-2.2,2.2-4.6,4.2-7.2,5.9
			c-4,2.7-8.2,4.9-12.7,6.7c-0.7,0.3-1.4,0.6-2.2,0.8c4.2-10,9.2-19.7,14.9-29l0.8-1.2c0.5-0.7,0.2-1.7-0.5-2.2s-1.7-0.2-2.2,0.5
			c-0.3,0.4-0.5,0.8-0.8,1.2c-2,3.2-4.1,6.1-5.7,8.4c-3,4.2-6.3,8.3-10.9,9.2c-1,0.3-2.1,0.1-3.1-0.3c-0.8-0.4-1.4-1.1-1.6-2
			c-0.7-2.6,1.8-7.1,3.3-9.7l0.3-0.6c1-1.9,2.2-3.7,3.3-5.3l0.7-1c0.5-0.7,0.2-1.7-0.5-2.2c-0.7-0.4-1.6-0.3-2.1,0.4l-0.7,1
			c-5.1,6.9-11,7.6-13.5,7.9c-3.2,0.4-6.5,0.4-9.7,0c-0.9-0.1-1.7,0.5-1.8,1.3c-0.1,0.9,0.5,1.7,1.3,1.8c0,0,0,0,0.1,0
			c3.5,0.4,7,0.4,10.5,0c2.8-0.3,5.5-1.1,8-2.3c-1.5,3-3,6.6-2.3,9.6c0.5,1.7,1.6,3.1,3.1,4c1.6,0.8,3.5,1.1,5.3,0.6
			c2.3-0.5,4.5-1.5,6.3-3.1c-2.2,4.5-4.4,9.4-6.6,14.6c-11.6,4.4-25.6,10.8-27.5,24c-0.6,3.7,0.9,8.3,4.8,10.1
			c1,0.5,2.1,0.7,3.3,0.7c2.8-0.1,5.5-1.3,7.5-3.3c5.3-5.4,8.4-13.7,11.2-21.1c0.7-1.9,1.4-3.7,2.1-5.4l1.1-2.6l2.1-0.8l2.9-1.1
			c4.7-1.8,9.2-4.2,13.3-7c1.9-1.3,3.7-2.7,5.4-4.2c0.5,3.1,2.1,6.3,5.1,7.7c2.2,1,4.7,1.2,7,0.5c4.1-1.3,7.7-3.9,10.2-7.3
			c1.1-1.4,2-2.9,2.9-4.5c3.1-0.1,6.1-1.1,8.6-3c0.7-0.5,1.3-1,1.9-1.5c-0.1,0.3-0.1,0.5-0.2,0.8c-1.8,7.4,0.6,10.9,2.8,12.5
			c4.2,2.9,9.2,1,12.6-1.8c2.6-2.2,4.7-4.9,6.2-8c0.2,1,0.5,2,1,2.8c0.9,1.5,2.5,2.6,4.2,2.9c4.8,1,8.6-3.3,10.4-5.4
			s4.9-6.8,6.1-8.6h13.5c0.9,0,1.6-0.7,1.6-1.6v0V69C181.1,68.1,180.4,67.4,179.5,67.4C179.5,67.4,179.5,67.4,179.5,67.4z
			 M57.4,145.9c-2.6,7.1-5.6,15.1-10.5,20c-1.7,1.8-4.7,3.1-7.2,2s-3.4-4.4-3-6.8c1.6-10.5,12.6-16.4,22.8-20.5
			C58.8,142.2,58.1,144.1,57.4,145.9z M110.6,118.9c-0.3-0.1-0.6-0.2-0.9-0.3c-4.5-1.7-7-6.2-6.1-11.2c0.2-1.6,1-3.1,2.2-4.1
			c0.7-0.5,1.6-0.8,2.5-0.8c0.9,0,1.8,0.4,2.5,1c1,0.9,1.5,2.4,1.7,4.6C112.8,111.8,112.1,115.6,110.6,118.9L110.6,118.9z"/>
		<path class="st0" d="M43.4,88.2H24.8V69.6c0-1.2-0.9-2.1-2.1-2.1s-2.1,0.9-2.1,2.1l0,0v18.5H2.1c-1.2,0-2.1,0.9-2.1,2.1
			s0.9,2.1,2.1,2.1c0,0,0,0,0,0h18.5v18.5c0,1.2,0.9,2.1,2.1,2.1s2.1-0.9,2.1-2.1V92.4h18.5c1.2,0,2.1-0.9,2.1-2.1
			C45.5,89.1,44.5,88.2,43.4,88.2z"/>
		<path class="st0" d="M9.9,15.6V0l0,0l8.3,11.8L17,11.5L25.3,0l0,0v15.6h-2.9V6.6l0.2,1.5l-5.1,7.2l0,0l-5.2-7.2l0.5-1.4v8.8
			L9.9,15.6z"/>
		<path class="st0" d="M31.4,0.6h2.9v14.9h-2.9V0.6z"/>
		<path class="st0" d="M44.4,10.9L38.9,0.6h3.6l3.9,7.7l-0.9,0.1l3.8-7.8h3.6l-5.6,10.3v4.6h-2.9V10.9z"/>
		<path class="st0" d="M60.2,10c0,0.5,0.2,1,0.4,1.4c0.3,0.4,0.7,0.8,1.1,1c0.5,0.3,1,0.4,1.5,0.4c1.1,0,2.1-0.5,2.8-1.4
			c0.3-0.4,0.4-0.9,0.4-1.4V0.6h2.9v9.5c0,1-0.3,2-0.8,2.9c-0.5,0.9-1.3,1.5-2.2,2c-0.9,0.5-2,0.7-3.1,0.7c-1,0-2.1-0.2-3-0.7
			c-0.9-0.5-1.7-1.1-2.2-2c-0.5-0.9-0.8-1.9-0.8-2.9V0.6h2.9L60.2,10z"/>
		<path class="st0" d="M83.2,0.6h10.1v2.8h-3.6v12.1h-2.9V3.5h-3.5V0.6z"/>
		<path class="st0" d="M96.9,8.1c0-1,0.2-2,0.6-2.9c0.4-0.9,0.9-1.7,1.6-2.5c0.7-0.7,1.5-1.3,2.4-1.7c0.9-0.4,2-0.6,3-0.6
			c1,0,2,0.2,2.9,0.6c1.8,0.8,3.3,2.3,4.1,4.1c0.4,0.9,0.6,1.9,0.6,2.9c0,1-0.2,2.1-0.6,3c-0.8,1.8-2.3,3.3-4.1,4.1
			c-0.9,0.4-1.9,0.6-2.9,0.6c-1,0-2.1-0.2-3-0.6c-0.9-0.4-1.7-0.9-2.4-1.6c-0.7-0.7-1.3-1.5-1.6-2.4C97.1,10.2,96.9,9.1,96.9,8.1z
			 M99.9,8.1c0,0.6,0.1,1.3,0.3,1.9c0.2,0.6,0.6,1.1,1,1.5c0.9,0.9,2.1,1.4,3.3,1.4c0.6,0,1.2-0.1,1.8-0.4c0.5-0.2,1-0.6,1.4-1
			c0.4-0.4,0.8-1,1-1.5c0.2-0.6,0.3-1.2,0.3-1.9c0-0.6-0.1-1.3-0.3-1.9c-0.2-0.6-0.6-1.1-1-1.5c-0.4-0.4-0.9-0.8-1.4-1
			c-1.2-0.5-2.5-0.5-3.6,0c-0.5,0.2-1,0.6-1.5,1c-0.4,0.4-0.8,1-1,1.5C100.1,6.8,100,7.5,99.9,8.1L99.9,8.1z"/>
		<path class="st0" d="M117.4,15.6V0l0,0l8.3,11.8l-1.3-0.3L132.8,0l0,0v15.6h-2.9V6.6l0.2,1.5l-5,7.2l0,0l-5.2-7.2l0.5-1.4v8.8
			L117.4,15.6z"/>
		<path class="st0" d="M138.9,0.6h2.9v14.9h-2.9V0.6z"/>
		<path class="st0" d="M146.6,0.6h10.1v2.8h-3.6v12.1h-2.9V3.5h-3.5V0.6z"/>
		<path class="st0" d="M158.8,15.6L165.6,0h0.2l6.7,15.5h-3.4l-4.3-10.9l2.1-1.5l-5.2,12.4L158.8,15.6z M163.4,10.1h4.5l1,2.5h-6.4
			L163.4,10.1z"/>
		<path class="st0" d="M8.4,34.2c0-0.9,0.2-1.7,0.6-2.4c0.4-0.7,1.1-1.3,1.8-1.7c0.8-0.4,1.7-0.6,2.7-0.6c0.9,0,1.8,0.2,2.6,0.6
			c0.7,0.4,1.3,1,1.7,1.7c0.4,0.7,0.6,1.6,0.6,2.4c0,0.9-0.2,1.7-0.6,2.5c-0.4,0.7-1,1.3-1.7,1.7c-0.8,0.4-1.7,0.7-2.7,0.6
			c-0.9,0-1.8-0.2-2.6-0.6C10.1,38,9.4,37.5,9,36.8C8.6,36,8.3,35.1,8.4,34.2z M11.2,34.2c0,0.4,0.1,0.9,0.3,1.2
			c0.2,0.4,0.4,0.7,0.8,0.9c0.3,0.2,0.7,0.3,1.1,0.3c0.4,0,0.8-0.1,1.1-0.3c0.3-0.2,0.6-0.5,0.8-0.9c0.4-0.8,0.4-1.7,0-2.5
			c-0.3-0.8-1.1-1.2-1.9-1.2c-0.4,0-0.8,0.1-1.1,0.3c-0.3,0.2-0.6,0.5-0.8,0.9C11.3,33.3,11.2,33.8,11.2,34.2L11.2,34.2z"/>
		<path class="st0" d="M21.8,38.7v-6.4h-1.5v-2.5h1.5v-3.1c0-1,0.3-2.1,1-2.9c0.8-0.8,1.8-1.2,2.9-1.1c0.4,0,0.9,0.1,1.3,0.2
			c0.4,0.1,0.9,0.3,1.2,0.6L27,25.5c-0.1-0.2-0.3-0.3-0.5-0.4c-0.2-0.1-0.3-0.1-0.5-0.1c-0.4,0-0.7,0.1-1,0.4
			c-0.3,0.4-0.4,0.8-0.4,1.3v3h2.7v2.5h-2.7v6.4L21.8,38.7z"/>
		<path class="st0" d="M32.1,38.7v-6.4h-1.5v-2.5h1.5v-3.1c0-1,0.3-2.1,1-2.9c0.8-0.8,1.8-1.2,2.9-1.1c0.4,0,0.9,0.1,1.3,0.2
			c0.4,0.1,0.9,0.3,1.2,0.6l-1.2,2c-0.1-0.2-0.3-0.3-0.5-0.4c-0.2-0.1-0.3-0.1-0.5-0.1c-0.4,0-0.7,0.1-1,0.4
			c-0.3,0.4-0.4,0.8-0.4,1.3v3h2.7v2.5h-2.7v6.4L32.1,38.7z"/>
		<path class="st0" d="M41.4,26.7c0-0.4,0.2-0.8,0.5-1c0.3-0.3,0.7-0.4,1.1-0.4c0.4,0,0.7,0.2,1,0.4c0.3,0.2,0.5,0.6,0.5,1
			c0,0.4-0.2,0.8-0.5,1c-0.3,0.2-0.6,0.4-1,0.4c-0.4,0-0.8-0.1-1.1-0.4C41.6,27.4,41.4,27.1,41.4,26.7z M41.5,29.9h2.8v8.9h-2.8
			V29.9z"/>
		<path class="st0" d="M56,37.9c-0.4,0.3-0.9,0.6-1.5,0.8C54,38.9,53.4,39,52.8,39c-0.9,0-1.8-0.2-2.7-0.6c-0.7-0.4-1.3-0.9-1.7-1.6
			c-0.4-0.8-0.6-1.6-0.6-2.5c0-0.9,0.2-1.8,0.7-2.5c0.4-0.7,1-1.2,1.8-1.6c0.7-0.4,1.5-0.6,2.3-0.5c0.7,0,1.4,0.1,2.1,0.3
			c0.6,0.2,1.1,0.5,1.5,0.9l-1.4,1.8c-0.2-0.2-0.5-0.3-0.8-0.5c-0.4-0.2-0.8-0.2-1.2-0.2c-0.4,0-0.8,0.1-1.1,0.3
			c-0.3,0.2-0.6,0.5-0.8,0.8c-0.2,0.4-0.3,0.8-0.3,1.2c0,0.4,0.1,0.8,0.3,1.2c0.2,0.4,0.5,0.7,0.8,0.9c0.4,0.2,0.8,0.3,1.3,0.3
			c0.3,0,0.6,0,0.9-0.1c0.3-0.1,0.5-0.2,0.7-0.4L56,37.9z"/>
		<path class="st0" d="M59,26.7c0-0.4,0.2-0.8,0.5-1c0.3-0.3,0.7-0.4,1.1-0.4c0.4,0,0.7,0.2,1,0.4c0.3,0.2,0.5,0.6,0.5,1
			c0,0.4-0.2,0.8-0.5,1c-0.3,0.2-0.6,0.4-1,0.4c-0.4,0-0.8-0.1-1.1-0.4C59.2,27.5,59,27.1,59,26.7z M59,29.9h2.8v8.9H59V29.9z"/>
		<path class="st0" d="M69.6,39c-0.8,0-1.5-0.2-2.2-0.5c-0.7-0.3-1.2-0.9-1.6-1.5c-0.4-0.8-0.6-1.7-0.6-2.6c0-0.9,0.2-1.8,0.6-2.6
			c0.4-0.7,0.9-1.3,1.6-1.7c0.6-0.4,1.4-0.6,2.1-0.6c0.7,0,1.4,0.1,2,0.4c0.4,0.3,0.8,0.6,1.1,1l-0.1,0.3l0.3-1.3h2.6v8.9h-2.8v-2
			l0.2,0.6c0,0-0.1,0.1-0.2,0.2c-0.2,0.2-0.4,0.4-0.6,0.5c-0.3,0.2-0.6,0.4-1,0.5C70.5,38.9,70,39,69.6,39z M70.4,36.7
			c0.3,0,0.6,0,0.9-0.2c0.3-0.1,0.5-0.3,0.7-0.5c0.2-0.2,0.4-0.5,0.5-0.7v-2.2c-0.1-0.3-0.3-0.5-0.5-0.8c-0.2-0.2-0.5-0.4-0.8-0.5
			c-0.3-0.1-0.7-0.2-1-0.2c-0.4,0-0.8,0.1-1.1,0.3c-0.3,0.2-0.6,0.5-0.8,0.9c-0.2,0.4-0.3,0.8-0.3,1.2c0,0.4,0.1,0.9,0.3,1.3
			c0.2,0.4,0.5,0.7,0.9,0.9C69.5,36.5,69.9,36.7,70.4,36.7L70.4,36.7z"/>
		<path class="st0" d="M79.2,22.7H82v16h-2.8V22.7z"/>
		<path class="st0" d="M96.8,38.7v-6.4h-1.5v-2.5h1.5v-3.1c0-1,0.3-2.1,1-2.9c0.8-0.8,1.8-1.2,2.9-1.1c0.4,0,0.9,0.1,1.3,0.2
			c0.4,0.1,0.9,0.3,1.2,0.6l-1.2,2.1c-0.1-0.2-0.3-0.3-0.5-0.4c-0.2-0.1-0.3-0.1-0.5-0.1c-0.4,0-0.7,0.1-1,0.4
			c-0.3,0.4-0.4,0.8-0.4,1.3v3h2.7v2.5h-2.7v6.4L96.8,38.7z"/>
		<path class="st0" d="M109.4,39c-0.8,0-1.5-0.2-2.2-0.5c-0.7-0.3-1.2-0.9-1.6-1.5c-0.4-0.8-0.6-1.7-0.6-2.7c0-0.9,0.2-1.8,0.6-2.6
			c0.4-0.7,0.9-1.3,1.6-1.7c0.6-0.4,1.4-0.6,2.1-0.6c0.7,0,1.4,0.1,2,0.4c0.4,0.3,0.8,0.6,1.1,1l-0.1,0.3l0.3-1.3h2.6v8.9h-2.8v-2
			l0.2,0.6c0,0-0.1,0.1-0.2,0.2c-0.2,0.2-0.4,0.4-0.6,0.5c-0.3,0.2-0.6,0.4-1,0.5C110.3,38.9,109.9,39,109.4,39z M110.2,36.7
			c0.3,0,0.6,0,0.9-0.2c0.3-0.1,0.5-0.3,0.7-0.5c0.2-0.2,0.4-0.5,0.5-0.7v-2.2c-0.1-0.3-0.3-0.5-0.5-0.8c-0.2-0.2-0.5-0.4-0.8-0.5
			c-0.3-0.1-0.7-0.2-1-0.2c-0.4,0-0.8,0.1-1.1,0.3c-0.3,0.2-0.6,0.5-0.8,0.9c-0.2,0.4-0.3,0.8-0.3,1.2c0,0.4,0.1,0.9,0.3,1.3
			c0.2,0.4,0.5,0.7,0.9,0.9C109.4,36.5,109.8,36.6,110.2,36.7L110.2,36.7z"/>
		<path class="st0" d="M121.6,29.9l0.2,1.6v-0.1c0.3-0.6,0.8-1,1.3-1.4c0.6-0.4,1.4-0.5,2.1-0.5c0.8,0,1.5,0.2,2.1,0.8
			c0.6,0.5,0.9,1.2,0.9,1.9v6.6h-2.8v-5.6c0-0.3-0.1-0.7-0.3-0.9c-0.3-0.3-0.6-0.4-1-0.4c-0.4,0-0.8,0.1-1.1,0.4
			c-0.3,0.3-0.6,0.7-0.8,1.2c-0.2,0.5-0.3,1.1-0.3,1.7v3.6H119v-8.9H121.6z"/>
		<path class="st0" d="M139.6,37.9c-0.4,0.3-0.9,0.6-1.5,0.8c-0.6,0.2-1.1,0.3-1.7,0.3c-0.9,0-1.8-0.2-2.6-0.6
			c-0.7-0.3-1.4-0.9-1.8-1.6c-0.4-0.8-0.6-1.6-0.6-2.5c0-0.9,0.2-1.8,0.7-2.5c0.4-0.7,1-1.2,1.8-1.6c0.7-0.4,1.5-0.6,2.3-0.5
			c0.7,0,1.4,0.1,2.1,0.3c0.5,0.2,1.1,0.5,1.5,0.9l-1.4,1.8c-0.2-0.2-0.5-0.3-0.8-0.5c-0.4-0.2-0.8-0.2-1.2-0.2
			c-0.4,0-0.8,0.1-1.1,0.3c-0.3,0.2-0.6,0.5-0.8,0.8c-0.2,0.4-0.3,0.8-0.3,1.2c0,0.4,0.1,0.8,0.3,1.2c0.2,0.4,0.5,0.7,0.9,0.9
			c0.4,0.2,0.8,0.3,1.3,0.3c0.3,0,0.6,0,0.9-0.1c0.2-0.1,0.5-0.2,0.7-0.4L139.6,37.9z"/>
		<path class="st0" d="M142.7,22.7h2.9v16h-2.9V22.7z"/>
		<path class="st0" d="M152.2,39.2c-0.7,0-1.5-0.3-2-0.7c-0.5-0.5-0.8-1.2-0.9-1.9v-6.6h2.8v5.6c0,0.4,0.1,0.7,0.3,1
			c0.2,0.3,0.6,0.4,0.9,0.3c0.4,0,0.8-0.1,1.1-0.4c0.3-0.3,0.6-0.7,0.7-1.2c0.2-0.5,0.3-1.1,0.2-1.7v-3.7h2.8v8.9h-2.6l-0.2-1.6v0.2
			c-0.2,0.4-0.5,0.7-0.8,1c-0.3,0.3-0.7,0.5-1.1,0.7C153.1,39.1,152.7,39.2,152.2,39.2z"/>
		<path class="st0" d="M167.9,39c-0.6,0-1.3-0.1-1.9-0.4c-0.5-0.3-1-0.6-1.3-1l0.2-0.6v1.7h-2.8v-16h2.8v7.8
			c0.4-0.3,0.9-0.6,1.4-0.8c0.6-0.2,1.3-0.3,2-0.3c0.7,0,1.5,0.2,2.1,0.5c0.7,0.4,1.2,0.9,1.5,1.6c0.4,0.8,0.6,1.7,0.6,2.5
			c0,0.9-0.2,1.8-0.6,2.6C171.1,38.1,169.5,39,167.9,39L167.9,39z M167.3,36.6c0.4,0,0.8-0.1,1.2-0.3c0.4-0.2,0.7-0.5,0.9-0.9
			c0.2-0.4,0.3-0.8,0.3-1.3c0-0.4-0.1-0.9-0.3-1.3c-0.2-0.4-0.5-0.7-0.9-0.9c-0.4-0.2-0.8-0.3-1.2-0.3c-0.3,0-0.7,0.1-1,0.2
			c-0.3,0.1-0.6,0.3-0.8,0.5c-0.2,0.2-0.4,0.5-0.5,0.8v2.2c0.1,0.3,0.3,0.5,0.6,0.7c0.2,0.2,0.5,0.4,0.8,0.5
			C166.6,36.5,167,36.6,167.3,36.6L167.3,36.6z"/>
	</g>
</g>
</svg>
